<svg width="250" height="250" viewBox="0 0 250 250" fill="none" xmlns="http://www.w3.org/2000/svg">
<path d="M155.19 180.366C152.73 177.906 152.73 173.917 155.19 171.457L222.648 103.999C225.108 101.539 229.097 101.539 231.557 103.999L248.104 120.545C250.564 123.006 250.564 126.994 248.104 129.455L180.646 196.913C178.185 199.373 174.196 199.373 171.736 196.913L155.19 180.366Z" fill="#FE5101"/>
<path d="M180.646 53.0872C178.185 50.6269 174.196 50.6269 171.736 53.0872L53.3665 171.457C50.9062 173.917 50.9062 177.906 53.3665 180.366L120.824 247.824C123.285 250.285 127.274 250.285 129.734 247.824L146.28 231.278C148.741 228.818 148.741 224.829 146.28 222.369L104.278 180.366C101.818 177.906 101.818 173.917 104.278 171.457L197.192 78.5431C199.652 76.0828 199.652 72.0938 197.192 69.6335L180.646 53.0872Z" fill="#FE5101"/>
<path d="M2.45477 129.455C-0.00552973 126.994 -0.00553024 123.006 2.45477 120.545L120.824 2.17555C123.285 -0.284751 127.274 -0.284749 129.734 2.17555L146.28 18.7219C148.741 21.1822 148.741 25.1711 146.28 27.6314L27.9106 146.001C25.4503 148.461 21.4614 148.461 19.0011 146.001L2.45477 129.455Z" fill="#FE5101"/>
</svg>
